<svg width="44" height="44" viewBox="0 0 44 44" fill="none" xmlns="http://www.w3.org/2000/svg">
<path d="M17.4969 19.9522C17.9241 19.6429 18.1304 19.1321 18.1304 18.4299C18.1451 18.096 18.0763 17.767 17.929 17.4674C17.7964 17.2268 17.6 17.0254 17.3594 16.883C17.1099 16.7317 16.8328 16.6316 16.5442 16.5884C16.2299 16.5295 15.9107 16.5 15.5964 16.5049H12.1442V20.4187H15.8812C16.5246 20.4237 17.0696 20.2665 17.4969 19.9522ZM18.0763 23.4879C17.5951 23.1196 16.9518 22.9379 16.1513 22.9379H12.1344V27.554H16.0728C16.4411 27.554 16.7799 27.5196 17.1089 27.4509C17.4202 27.39 17.717 27.27 17.983 27.0973C18.2335 26.9353 18.4348 26.7143 18.5871 26.4295C18.7344 26.1446 18.808 25.7812 18.808 25.3442C18.808 24.475 18.5625 23.8612 18.0763 23.4879ZM22 0C9.85089 0 0 9.85089 0 22C0 34.1491 9.85089 44 22 44C34.1491 44 44 34.1491 44 22C44 9.85089 34.1491 0 22 0ZM26.2478 14.0888H33.0442V15.7437H26.2478V14.0888ZM22 27.7357C21.6821 28.3391 21.2282 28.8603 20.6741 29.258C20.0946 29.6607 19.4513 29.9554 18.7688 30.1272C18.0546 30.3186 17.3179 30.4128 16.5786 30.4071H8.44643V13.6567H16.3527C17.1531 13.6567 17.8799 13.7304 18.5429 13.8679C19.2009 14.0054 19.7607 14.2411 20.2321 14.5603C20.6987 14.8795 21.067 15.3067 21.3272 15.8371C21.5826 16.3625 21.7152 17.0205 21.7152 17.8013C21.7152 18.646 21.5237 19.3433 21.1406 19.908C20.7527 20.4728 20.1929 20.9295 19.4317 21.2879C20.4679 21.5826 21.229 22.108 21.7299 22.8446C22.2406 23.5911 22.4911 24.4848 22.4911 25.5357C22.4911 26.3902 22.329 27.1219 22 27.7357ZM35.6911 25.1429H26.9304C26.9304 26.0955 27.2594 27.0089 27.7554 27.5C28.2563 27.9862 28.9732 28.2317 29.9112 28.2317C30.5888 28.2317 31.1634 28.0598 31.6545 27.721C32.1406 27.3821 32.4353 27.0237 32.5433 26.6504H35.4799C35.0085 28.1089 34.2915 29.15 33.3192 29.7786C32.3567 30.4071 31.1781 30.7214 29.808 30.7214C28.8504 30.7214 27.9911 30.5643 27.2201 30.2647C26.4786 29.975 25.8107 29.533 25.2607 28.9634C24.7184 28.3784 24.2993 27.6904 24.0281 26.9402C23.7286 26.1103 23.5813 25.2362 23.5911 24.3571C23.5911 23.4487 23.7433 22.604 24.0379 21.8183C24.6027 20.2911 25.7763 19.0683 27.2741 18.4348C28.0746 18.1009 28.9339 17.9339 29.8031 17.9437C30.8344 17.9437 31.7281 18.1402 32.504 18.5429C33.251 18.9274 33.8995 19.4785 34.3996 20.1536C34.8955 20.8263 35.2442 21.5924 35.4652 22.4567C35.6763 23.3062 35.75 24.2 35.6911 25.1429ZM29.7 20.4482C29.1696 20.4482 28.7228 20.5415 28.379 20.7232C28.0353 20.9049 27.7504 21.1308 27.5344 21.3911C27.3286 21.6424 27.1765 21.9332 27.0875 22.2455C27.0089 22.5058 26.9549 22.771 26.9353 23.0411H32.3616C32.283 22.1915 31.9884 21.5629 31.5955 21.121C31.183 20.6839 30.5201 20.4482 29.7 20.4482Z" fill="#FFFCFF"/>
</svg>
