<svg width="46" height="44" viewBox="0 0 46 44" fill="none" xmlns="http://www.w3.org/2000/svg">
<path d="M23.0026 1.89079e-06C10.2936 -0.00504745 0 10.1037 0 22.5807C0 32.4471 6.43928 40.8341 15.407 43.9142C16.6147 44.2121 16.4297 43.3688 16.4297 42.7932V38.88C9.45593 39.6828 9.17328 35.1485 8.70562 34.3911C7.76003 32.8056 5.52452 32.4017 6.1926 31.6442C7.78058 30.8414 9.3994 31.8462 11.2752 34.5678C12.6319 36.5421 15.2785 36.2089 16.6198 35.8807C16.9127 34.6941 17.5397 33.6337 18.4031 32.8106C11.1775 31.5382 8.16601 27.2059 8.16601 22.0555C8.16601 19.5561 9.00369 17.2587 10.6482 15.4056C9.59982 12.3507 10.7458 9.73514 10.9 9.34634C13.8858 9.08377 16.9898 11.4469 17.2314 11.6337C18.9273 11.1843 20.8647 10.947 23.0334 10.947C25.2124 10.947 27.155 11.1944 28.8663 11.6488C29.447 11.2146 32.3249 9.18476 35.1 9.43218C35.249 9.82098 36.3693 12.3759 35.3826 15.3904C37.0477 17.2486 37.8957 19.5662 37.8957 22.0707C37.8957 27.2311 34.8636 31.5685 27.6175 32.8207C28.2381 33.4205 28.7309 34.1357 29.0671 34.9246C29.4033 35.7135 29.5761 36.5604 29.5755 37.4156V43.0962C29.6166 43.5506 29.5755 44 30.3463 44C39.4477 40.9855 46 32.538 46 22.5857C46 10.1037 35.7013 1.89079e-06 23.0026 1.89079e-06Z" fill="#FFFCFF"/>
</svg>
