<svg width="44" height="44" viewBox="0 0 44 44" fill="none" xmlns="http://www.w3.org/2000/svg">
<path d="M28.6 28.75H30.8V15.25H29.48L22 20.0312L14.52 15.25H13.2V28.75H15.4V18.9062L22 23.125L28.6 18.9062V28.75Z" fill="#FFFCFF"/>
<path fill-rule="evenodd" clip-rule="evenodd" d="M22 44C34.1503 44 44 34.1503 44 22C44 9.84973 34.1503 0 22 0C9.84973 0 0 9.84973 0 22C0 34.1503 9.84973 44 22 44ZM13.2 13H30.8C31.3835 13 31.9431 13.2371 32.3557 13.659C32.7682 14.081 33 14.6533 33 15.25V28.75C33 29.3467 32.7682 29.919 32.3557 30.341C31.9431 30.7629 31.3835 31 30.8 31H13.2C12.6165 31 12.0569 30.7629 11.6443 30.341C11.2318 29.919 11 29.3467 11 28.75V15.25C11 14.0012 11.979 13 13.2 13Z" fill="#FFFCFF"/>
</svg>
